<?xml version="1.0" encoding="UTF-8" standalone="no"?>
<!DOCTYPE svg PUBLIC "-//W3C//DTD SVG 1.1//EN"
 "http://www.w3.org/Graphics/SVG/1.1/DTD/svg11.dtd">
<!-- Generated by graphviz version 7.1.0 (20230121.1956)
 -->
<!-- Title: G Pages: 1 -->
<svg width="260pt" height="66pt"
 viewBox="0.00 0.00 260.20 66.20" xmlns="http://www.w3.org/2000/svg" xmlns:xlink="http://www.w3.org/1999/xlink">
<g id="graph0" class="graph" transform="scale(1 1) rotate(0) translate(21.6 44.6)">
<title>G</title>
<polygon fill="#111111" stroke="none" points="-21.6,21.6 -21.6,-44.6 238.6,-44.6 238.6,21.6 -21.6,21.6"/>
<!-- app&#45;functions.js -->
<g id="node1" class="node">
<title>app&#45;functions.js</title>
<path fill="none" stroke="#ff6c60" d="M108.33,-23C108.33,-23 7.67,-23 7.67,-23 3.83,-23 0,-19.17 0,-15.33 0,-15.33 0,-7.67 0,-7.67 0,-3.83 3.83,0 7.67,0 7.67,0 108.33,0 108.33,0 112.17,0 116,-3.83 116,-7.67 116,-7.67 116,-15.33 116,-15.33 116,-19.17 112.17,-23 108.33,-23"/>
<text text-anchor="middle" x="58" y="-7.8" font-family="Arial" font-size="14.00" fill="#ff6c60">app&#45;functions.js</text>
</g>
<!-- index.js -->
<g id="node2" class="node">
<title>index.js</title>
<path fill="none" stroke="#ff6c60" d="M209.33,-23C209.33,-23 159.67,-23 159.67,-23 155.83,-23 152,-19.17 152,-15.33 152,-15.33 152,-7.67 152,-7.67 152,-3.83 155.83,0 159.67,0 159.67,0 209.33,0 209.33,0 213.17,0 217,-3.83 217,-7.67 217,-7.67 217,-15.33 217,-15.33 217,-19.17 213.17,-23 209.33,-23"/>
<text text-anchor="middle" x="184.5" y="-7.8" font-family="Arial" font-size="14.00" fill="#ff6c60">index.js</text>
</g>
<!-- app&#45;functions.js&#45;&gt;index.js -->
<g id="edge1" class="edge">
<title>app&#45;functions.js&#45;&gt;index.js</title>
<path fill="none" stroke="#757575" d="M116.15,-4.77C124.21,-4.71 132.39,-4.79 140.14,-5.03"/>
<polygon fill="#757575" stroke="#757575" points="139.85,-8.52 149.99,-5.45 140.15,-1.53 139.85,-8.52"/>
</g>
<!-- index.js&#45;&gt;app&#45;functions.js -->
<g id="edge2" class="edge">
<title>index.js&#45;&gt;app&#45;functions.js</title>
<path fill="none" stroke="#757575" d="M151.5,-17.48C144.08,-17.89 135.89,-18.14 127.55,-18.22"/>
<polygon fill="#757575" stroke="#757575" points="127.66,-14.72 117.66,-18.23 127.67,-21.72 127.66,-14.72"/>
</g>
</g>
</svg>
